<svg xmlns="http://www.w3.org/2000/svg" viewBox="0 0 64 64">
  <defs>
    <linearGradient id="bg" x1="0" x2="1" y1="0" y2="1">
      <stop offset="0" stop-color="#e1eadc"/>
      <stop offset="1" stop-color="#d4e4ef"/>
    </linearGradient>
  </defs>
  <rect width="64" height="64" rx="16" fill="url(#bg)"/>
  <path d="M20 42c2.4 3.2 6.5 5.2 11.4 5.2 7.9 0 12.6-4.5 12.6-10.3 0-5-3.1-7.8-8.3-9.4l-2.9-.9c-2.6-.8-3.9-1.7-3.9-3.4 0-2 1.8-3.4 4.8-3.4 2.7 0 5 1 6.8 2.7l4.5-4.3c-2.5-2.7-6.3-4.4-11-4.4-6.9 0-12.1 4-12.1 10 0 4.8 2.8 7.5 8.2 9.2l3.2 1c2.8.9 3.9 1.9 3.9 3.7 0 2.2-1.9 3.7-5.3 3.7-3.3 0-6-1.3-8-3.4z" fill="#1f2719"/>
  <circle cx="18" cy="20" r="4" fill="#b76a49"/>
</svg>
